<?xml version="1.0" encoding="UTF-8"?>
<svg id="Camada_2" data-name="Camada 2" xmlns="http://www.w3.org/2000/svg" viewBox="0 0 140.62 40.86">
  <g id="Camada_1-2" data-name="Camada 1">
    <g>
      <path d="m12.43,0H0v9.97h12.43V0Z"/>
      <path d="m12.43,14.08H0v26.77h12.43V14.08Z"/>
      <path d="m30.09,13.84h-13.3v27.02h13.3V13.84Z"/>
      <path d="m56.01,13.84h-12.43v27.02h12.43V13.84Z"/>
      <path d="m16.79,0h27.91c5.86.41,9.65,4.11,10.9,10H16.79V0Z" style="fill-rule: evenodd;"/>
      <path d="m97.66,0h-37.51v9.97h37.51V0Z"/>
      <path d="m60.16,13.84h37.29v11.36h-24.86v4.3h25.08v11.36h-37.48l-.03-27.02Z" style="fill-rule: evenodd;"/>
      <path d="m101.15,0h27.91c5.78-.08,10.74,3.3,11.45,10h-39.36V0Z" style="fill-rule: evenodd;"/>
      <path d="m101.15,14.08h39.47c-.57,5.8-5.07,10.38-11.56,11.11h-14.61v15.66h-13.3V14.08Z" style="fill-rule: evenodd;"/>
    </g>
  </g>
</svg>